<svg width="38" height="34" viewBox="0 0 38 34" fill="none" xmlns="http://www.w3.org/2000/svg">
<rect width="38" height="34" rx="10" fill="#CEE4FF"/>
<path d="M19.5593 23.7047C19.3219 23.8607 19.0694 24.0251 18.8548 24.188H20.6675C20.8775 24.188 21.0788 24.2607 21.2272 24.3902C21.3757 24.5197 21.4591 24.6953 21.4591 24.8784C21.4591 25.0616 21.3757 25.2372 21.2272 25.3667C21.0788 25.4961 20.8775 25.5689 20.6675 25.5689H17.5013C17.2913 25.5689 17.09 25.4961 16.9416 25.3667C16.7931 25.2372 16.7097 25.0616 16.7097 24.8784C16.7097 23.8428 17.719 23.1827 18.6095 22.6C19.2031 22.212 19.876 21.7715 19.876 21.4263C19.876 21.2431 19.7926 21.0675 19.6441 20.938C19.4957 20.8086 19.2943 20.7358 19.0844 20.7358C18.8745 20.7358 18.6731 20.8086 18.5247 20.938C18.3762 21.0675 18.2928 21.2431 18.2928 21.4263C18.2928 21.6094 18.2094 21.785 18.061 21.9145C17.9125 22.0439 17.7112 22.1167 17.5013 22.1167C17.2913 22.1167 17.09 22.0439 16.9416 21.9145C16.7931 21.785 16.7097 21.6094 16.7097 21.4263C16.7097 20.8769 16.9599 20.3501 17.4052 19.9616C17.8506 19.5732 18.4546 19.3549 19.0844 19.3549C19.7142 19.3549 20.3182 19.5732 20.7635 19.9616C21.2089 20.3501 21.4591 20.8769 21.4591 21.4263C21.4591 22.4619 20.4498 23.122 19.5593 23.7047ZM26.2084 19.3549C25.9985 19.3549 25.7972 19.4277 25.6487 19.5572C25.5003 19.6866 25.4169 19.8623 25.4169 20.0454V22.1167H24.6253C24.4154 22.1167 24.214 22.0439 24.0656 21.9145C23.9172 21.785 23.8338 21.6094 23.8338 21.4263V20.0454C23.8338 19.8623 23.7504 19.6866 23.6019 19.5572C23.4535 19.4277 23.2521 19.3549 23.0422 19.3549C22.8323 19.3549 22.6309 19.4277 22.4825 19.5572C22.334 19.6866 22.2506 19.8623 22.2506 20.0454V21.4263C22.2506 21.9756 22.5008 22.5024 22.9462 22.8909C23.3915 23.2793 23.9955 23.4976 24.6253 23.4976H25.4169V24.8784C25.4169 25.0616 25.5003 25.2372 25.6487 25.3667C25.7972 25.4961 25.9985 25.5689 26.2084 25.5689C26.4184 25.5689 26.6197 25.4961 26.7682 25.3667C26.9166 25.2372 27 25.0616 27 24.8784V20.0454C27 19.8623 26.9166 19.6866 26.7682 19.5572C26.6197 19.4277 26.4184 19.3549 26.2084 19.3549ZM18.2928 17.2836V13.8314C18.2928 13.6483 18.2094 13.4727 18.061 13.3432C17.9125 13.2137 17.7112 13.141 17.5013 13.141C17.2913 13.141 17.09 13.2137 16.9416 13.3432C16.7931 13.4727 16.7097 13.6483 16.7097 13.8314V16.5932H14.335C14.1251 16.5932 13.9238 16.6659 13.7753 16.7954C13.6269 16.9249 13.5435 17.1005 13.5435 17.2836C13.5435 17.4667 13.6269 17.6423 13.7753 17.7718C13.9238 17.9013 14.1251 17.9741 14.335 17.9741H17.5013C17.7112 17.9741 17.9125 17.9013 18.061 17.7718C18.2094 17.6423 18.2928 17.4667 18.2928 17.2836ZM26.2084 10.3792C25.9985 10.3792 25.7972 10.452 25.6487 10.5815C25.5003 10.7109 25.4169 10.8865 25.4169 11.0697V12.7088C24.5921 11.6231 23.4856 10.7223 22.187 10.0795C20.8884 9.4367 19.4344 9.06996 17.9429 9.00906C16.4514 8.94816 14.9645 9.19481 13.6027 9.729C12.241 10.2632 11.0428 11.0699 10.1053 12.0836C9.16792 13.0973 8.51768 14.2895 8.20738 15.5634C7.89708 16.8374 7.93546 18.1572 8.31941 19.4158C8.70336 20.6743 9.42205 21.8363 10.4172 22.8072C11.4123 23.7782 12.6559 24.5308 14.0469 25.0041C14.1388 25.035 14.2365 25.0509 14.335 25.0511C14.5198 25.0513 14.6988 24.9952 14.841 24.8924C14.9833 24.7897 15.0799 24.6468 15.1141 24.4885C15.1483 24.3301 15.118 24.1663 15.0283 24.0255C14.9386 23.8846 14.7953 23.7755 14.6232 23.7171C13.4422 23.3188 12.388 22.6792 11.549 21.8519C10.7101 21.0247 10.111 20.0339 9.80185 18.9629C9.49275 17.8919 9.48272 16.7718 9.77262 15.6967C10.0625 14.6216 10.6439 13.6228 11.4679 12.7842C12.2919 11.9456 13.3345 11.2917 14.5082 10.8774C15.6819 10.463 16.9525 10.3003 18.2132 10.4029C19.474 10.5055 20.6881 10.8704 21.7537 11.4669C22.8193 12.0635 23.7052 12.8744 24.3372 13.8314H22.2506C22.0407 13.8314 21.8394 13.9042 21.6909 14.0336C21.5425 14.1631 21.4591 14.3387 21.4591 14.5219C21.4591 14.705 21.5425 14.8806 21.6909 15.0101C21.8394 15.1396 22.0407 15.2123 22.2506 15.2123H24.6253C25.2551 15.2123 25.8591 14.9941 26.3045 14.6056C26.7498 14.2172 27 13.6903 27 13.141V11.0697C27 10.8865 26.9166 10.7109 26.7682 10.5815C26.6197 10.452 26.4184 10.3792 26.2084 10.3792Z" fill="black"/>
</svg>
