<svg width="10" height="10" viewBox="0 0 10 10" fill="none" xmlns="http://www.w3.org/2000/svg">
<path d="M0 0V9.59475H10V0H0ZM0.833333 2.39869H2.91667V3.99781H0.833333V2.39869ZM6.25 3.99781H3.75V2.39869H6.25V3.99781ZM6.25 4.79738V6.3965H3.75V4.79738H6.25ZM0.833333 4.79738H2.91667V6.3965H0.833333V4.79738ZM0.833333 8.79519V7.19607H2.91667V8.79519H0.833333ZM3.75 8.79519V7.19607H6.25V8.79519H3.75ZM9.16667 8.79519H7.08333V7.19607H9.16667V8.79519ZM9.16667 6.3965H7.08333V4.79738H9.16667V6.3965ZM9.16667 3.99781H7.08333V2.39869H9.16667V3.99781ZM0.833333 1.59913V0.799563H9.16667V1.59913H0.833333Z" fill="white"/>
</svg>
