<svg width="13" height="13" viewBox="0 0 13 13" fill="none" xmlns="http://www.w3.org/2000/svg">
<path d="M1 4.48443H12M3.44444 1V2.16148M9.55556 1V2.16148M2.83333 6.22664H4.05556M5.88889 6.22664H7.11111M8.94444 6.22664H10.1667M2.83333 7.96885H4.05556M5.88889 7.96885H7.11111M8.94444 7.96885H10.1667M2.83333 9.71107H4.05556M5.88889 9.71107H7.11111M8.94444 9.71107H10.1667M2.95556 11.4533H10.0444C10.7289 11.4533 11.0712 11.4533 11.3327 11.3267C11.5626 11.2154 11.7496 11.0376 11.8668 10.8191C12 10.5707 12 10.2454 12 9.59492V4.01984C12 3.36935 12 3.0441 11.8668 2.79565C11.7496 2.5771 11.5626 2.39942 11.3327 2.28807C11.0712 2.16148 10.7289 2.16148 10.0444 2.16148H2.95556C2.27105 2.16148 1.92879 2.16148 1.66735 2.28807C1.43737 2.39942 1.25039 2.5771 1.13322 2.79565C1 3.0441 1 3.36935 1 4.01984V9.59492C1 10.2454 1 10.5707 1.13322 10.8191C1.25039 11.0376 1.43737 11.2154 1.66735 11.3267C1.92879 11.4533 2.27104 11.4533 2.95556 11.4533Z" stroke="#1F2937" stroke-width="1.22222" stroke-linecap="round"/>
</svg>
