<svg width="35" height="26" viewBox="0 0 35 26" fill="none" xmlns="http://www.w3.org/2000/svg">
<rect y="3.8147e-05" width="35" height="25.4545" rx="5.71429" fill="#CFE1F7"/>
<path d="M16 16.4036H24C24.5304 16.4036 25.0391 16.2033 25.4142 15.8469C25.7893 15.4905 26 15.0071 26 14.503V6.9006C26 6.39653 25.7893 5.9131 25.4142 5.55667C25.0391 5.20024 24.5304 5 24 5H16C15.4696 5 14.9609 5.20024 14.5858 5.55667C14.2107 5.9131 14 6.39653 14 6.9006V16.4036H16ZM24 14.503H16V6.9006H24V14.503Z" fill="black"/>
<path d="M20 18.3042H12V8.80119C11.4696 8.80119 10.9609 9.00143 10.5858 9.35786C10.2107 9.71429 10 10.1977 10 10.7018V18.3042C10 18.8082 10.2107 19.2917 10.5858 19.6481C10.9609 20.0045 11.4696 20.2048 12 20.2048H20C20.5304 20.2048 21.0391 20.0045 21.4142 19.6481C21.7893 19.2917 22 18.8082 22 18.3042" fill="black"/>
</svg>
