<svg width="17" height="17" viewBox="0 0 17 17" fill="none" xmlns="http://www.w3.org/2000/svg">
<path d="M12.5637 8.63513C12.0991 8.62745 11.7152 8.94744 11.7064 9.34971C11.6975 9.75207 12.067 10.0844 12.5318 10.0921L12.5637 8.63513ZM16.1579 12.6898L15.3164 12.6768V12.6898H16.1579ZM16.1579 12.9453H15.3162L15.3165 12.9583L16.1579 12.9453ZM12.5478 16.2714V17C12.5531 17 12.5585 17 12.5637 16.9999L12.5478 16.2714ZM4.45229 16.2714L4.43627 16.9999C4.44161 17 4.44695 17 4.45229 17V16.2714ZM0.842151 12.9453L1.68368 12.9583V12.9453H0.842151ZM0.842151 12.6898H1.68381L1.68354 12.6768L0.842151 12.6898ZM4.46831 10.0921C4.93299 10.0844 5.30251 9.75207 5.29367 9.34971C5.28481 8.94744 4.90095 8.62745 4.43627 8.63513L4.46831 10.0921ZM11.4332 12.5143C11.7903 12.2568 11.8388 11.7974 11.5414 11.4882C11.2441 11.179 10.7135 11.137 10.3562 11.3945L11.4332 12.5143ZM7.9616 13.1207C7.60435 13.3782 7.55599 13.8376 7.85333 14.1468C8.15066 14.456 8.68127 14.498 9.03853 14.2406L7.9616 13.1207ZM7.96127 14.2404C8.3183 14.4979 8.84891 14.4562 9.14647 14.147C9.44403 13.8379 9.39578 13.3785 9.03875 13.1209L7.96127 14.2404ZM6.64624 11.3947C6.28919 11.1371 5.75856 11.1788 5.46102 11.488C5.16348 11.7971 5.2117 12.2565 5.56875 12.5141L6.64624 11.3947ZM7.65854 13.6806C7.65854 14.083 8.03521 14.4092 8.50007 14.4092C8.96481 14.4092 9.34159 14.083 9.34159 13.6806H7.65854ZM9.34159 0.728571C9.34159 0.326196 8.96481 0 8.50007 0C8.03521 0 7.65854 0.326196 7.65854 0.728571H9.34159ZM12.5318 10.0921C14.0787 10.1175 15.3457 11.2577 15.3164 12.6768L16.9992 12.7028C17.0445 10.5146 15.0791 8.67661 12.5637 8.63513L12.5318 10.0921ZM15.3164 12.6898L15.3162 12.9453H16.9995V12.6898H15.3164ZM15.3165 12.9583C15.3458 14.3773 14.0787 15.5175 12.5318 15.543L12.5637 16.9999C15.0791 16.9584 17.0445 15.1204 16.9992 12.9322L15.3165 12.9583ZM12.5478 15.5429H4.45229V17H12.5478V15.5429ZM4.46831 15.543C2.92133 15.5175 1.65441 14.3773 1.68368 12.9583L0.000761832 12.9322C-0.0443663 15.1204 1.92091 16.9584 4.43627 16.9999L4.46831 15.543ZM1.68368 12.9453L1.68381 12.6898H0.000627005V12.9453H1.68368ZM1.68354 12.6768C1.65428 11.2577 2.92133 10.1175 4.46831 10.0921L4.43627 8.63513C1.92091 8.67661 -0.0443663 10.5146 0.000761832 12.7028L1.68354 12.6768ZM10.3562 11.3945L7.9616 13.1207L9.03853 14.2406L11.4332 12.5143L10.3562 11.3945ZM9.03875 13.1209L6.64624 11.3947L5.56875 12.5141L7.96127 14.2404L9.03875 13.1209ZM9.34159 13.6806V0.728571H7.65854V13.6806H9.34159Z" fill="white"/>
</svg>
