<svg width="39" height="39" viewBox="0 0 39 39" fill="none" xmlns="http://www.w3.org/2000/svg">
<circle cx="19.1774" cy="19.1774" r="19.1774" fill="#2563EB"/>
<path d="M26.9999 19.628C26.9812 18.0941 26.5271 16.5975 25.6913 15.3144C24.8555 14.0314 23.6728 13.0154 22.2823 12.386C20.8918 11.7567 19.3515 11.5402 17.8429 11.7622C16.3343 11.9841 14.9201 12.6351 13.7669 13.6387C12.6137 14.6422 11.7695 15.9563 11.3337 17.4264C10.8979 18.8965 10.8888 20.4612 11.3073 21.9364C11.7258 23.4116 12.5545 24.7356 13.6958 25.7528C14.8372 26.7699 16.2437 27.4377 17.7496 27.6775V21.9724H15.7495V19.628H17.7496V17.847C17.7033 17.433 17.7479 17.0137 17.8803 16.6188C18.0127 16.2239 18.2296 15.8631 18.5157 15.5618C18.8018 15.2605 19.1501 15.0261 19.5361 14.875C19.9222 14.724 20.3365 14.66 20.7497 14.6877C21.3495 14.6959 21.9479 14.7497 22.5397 14.8486V16.861H21.5397C21.3673 16.8391 21.1921 16.8565 21.0273 16.9119C20.8624 16.9673 20.712 17.0592 20.5872 17.1809C20.4624 17.3026 20.3664 17.451 20.3063 17.615C20.2461 17.7791 20.2234 17.9547 20.2397 18.1288V19.6481H22.4597L22.0997 21.9925H20.2497V27.6272C22.1396 27.3264 23.8599 26.3541 25.0983 24.8864C26.3367 23.4188 27.0114 21.5532 26.9999 19.628Z" fill="white"/>
</svg>
