<svg width="10" height="9" viewBox="0 0 10 9" fill="none" xmlns="http://www.w3.org/2000/svg">
<path fill-rule="evenodd" clip-rule="evenodd" d="M0.555556 8.23792H3.06055C3.2112 8.23792 3.33333 8.35031 3.33333 8.48021C3.33333 8.61403 3.20673 8.7225 3.06055 8.7225H0.272785C0.198301 8.7225 0.130785 8.69503 0.0815582 8.65155C0.0304232 8.60652 0 8.54763 0 8.48457V6.05294C0 5.92153 0.128852 5.815 0.277778 5.815C0.43119 5.815 0.555556 5.92543 0.555556 6.05294V8.23792ZM9.44444 8.23792H6.93945C6.79327 8.23792 6.66667 8.3464 6.66667 8.48021C6.66667 8.61011 6.7888 8.7225 6.93945 8.7225H9.72722C9.79951 8.7225 9.86703 8.69597 9.9168 8.65296C9.9685 8.60843 10 8.54954 10 8.48457V6.05294C10 5.92543 9.87564 5.815 9.72222 5.815C9.5733 5.815 9.44444 5.92153 9.44444 6.05294V8.23792ZM9.91844 0.0709543C9.86922 0.0274756 9.8017 0 9.72722 0H6.93945C6.79327 0 6.66667 0.108478 6.66667 0.242292C6.66667 0.372192 6.7888 0.484584 6.93945 0.484584H9.44444V2.66956C9.44444 2.79707 9.56881 2.9075 9.72222 2.9075C9.87115 2.9075 10 2.80097 10 2.66956V0.237937C10 0.174872 9.96958 0.11598 9.92027 0.0725663L9.91844 0.0709543ZM0.0832028 0.0695421C0.132974 0.0265324 0.200488 0 0.272785 0H3.06055C3.2112 0 3.33333 0.112391 3.33333 0.242292C3.33333 0.376106 3.20673 0.484584 3.06055 0.484584H0.555556V2.66956C0.555556 2.80097 0.426703 2.9075 0.277778 2.9075C0.124366 2.9075 0 2.79707 0 2.66956V0.237937C0 0.172965 0.0315031 0.11407 0.0813548 0.0711318L0.0832028 0.0695421ZM5 5.33042C5.61365 5.33042 6.11111 4.89651 6.11111 4.36125C6.11111 3.826 5.61365 3.39209 5 3.39209C4.38635 3.39209 3.88889 3.826 3.88889 4.36125C3.88889 4.89651 4.38635 5.33042 5 5.33042Z" fill="white"/>
</svg>
