<svg width="35" height="26" viewBox="0 0 35 26" fill="none" xmlns="http://www.w3.org/2000/svg">
<rect width="35" height="25.4545" rx="5.71429" fill="#CFE1F7"/>
<path d="M16.5114 22.2016C16.4776 22.1863 16.4391 22.1725 16.423 22.1634C16.4069 22.1481 15.2532 21.1432 13.8564 19.9183C11.4204 17.782 11.3153 17.6882 11.2779 17.6164L11.2393 17.5416V15.4781V13.4146H9.25032H7.26132L7.20989 13.3886C7.12793 13.3474 7.0765 13.297 7.03696 13.2215C7.00482 13.1605 7 13.1391 7 13.0578C7.00016 12.9158 7.01929 12.886 7.2872 12.6111C8.58175 11.2828 11.7157 8.06215 11.7459 8.02916C11.7668 8.00625 11.8134 7.97418 11.8487 7.9589L11.913 7.93141H14.0843H16.2557V6.06769V4.20397L16.2814 4.1383C16.3135 4.05735 16.3859 3.98084 16.4677 3.9396C16.5207 3.91211 16.5432 3.90906 16.6443 3.90906C16.7504 3.90906 16.7648 3.90906 16.823 3.94418C16.8953 3.98389 21.9313 8.39585 21.9728 8.45633C22.0419 8.55713 22.0371 8.42273 22.0371 10.6513V12.6997H24.0201H26.0032L26.0723 12.7318C26.151 12.7684 26.2201 12.8356 26.2568 12.9118C26.297 12.9943 26.2937 13.1295 26.2568 13.2133C26.2311 13.2637 25.7105 13.8054 23.8727 15.6974C21.7197 17.9138 21.5155 18.1207 21.4517 18.1505L21.3826 18.1826H19.2053H17.0281V20.0727V21.9628L16.9959 22.0209C16.9574 22.0911 16.8818 22.1583 16.8053 22.1906C16.7282 22.2226 16.6073 22.2287 16.5304 22.2058L16.5114 22.2016ZM16.2469 17.6908C16.2469 15.2837 16.2469 15.039 16.2227 14.9548C16.1569 14.6502 16.0376 14.3963 15.8515 14.1608L15.7711 14.06L13.9867 15.7557L12.2023 17.4515L12.265 17.508C12.3004 17.5385 13.2094 18.3367 14.2858 19.2805L16.2432 20.9965V20.6657C16.2432 20.4837 16.2446 19.1453 16.2425 17.6914L16.2469 17.6908ZM23.1434 15.3301L24.9977 13.4196H21.9815C19.9494 13.4196 18.9182 13.4204 18.8213 13.4349C18.5578 13.4578 18.3427 13.5143 18.1148 13.6218C17.983 13.6845 17.83 13.7772 17.7463 13.8457L17.6933 13.8885L19.4767 15.5835C20.8682 16.9056 21.2634 17.2752 21.2746 17.2641C21.2746 17.2488 22.1234 16.3902 23.1431 15.3394L23.1434 15.3301ZM16.7067 13.841C16.8961 13.5652 17.228 13.2556 17.5109 13.091L17.5752 13.0543L17.4691 12.9871C17.1742 12.8 16.8997 12.5389 16.7012 12.2565C16.6658 12.2061 16.6337 12.1709 16.6289 12.1755C16.6289 12.1755 16.5919 12.2244 16.5582 12.2733C16.369 12.5431 16.0992 12.7996 15.8152 12.9793C15.7654 13.0114 15.7187 13.0419 15.7123 13.0465C15.7123 13.0465 15.7445 13.0832 15.7975 13.1153C16.095 13.3042 16.3745 13.5695 16.5646 13.8436C16.6032 13.8986 16.6369 13.9398 16.6401 13.9352C16.6401 13.9352 16.6729 13.8884 16.7067 13.841ZM14.6649 12.6539C14.8403 12.6157 15.0151 12.5576 15.153 12.4921C15.2736 12.4356 15.4536 12.325 15.5336 12.2601L15.5754 12.225L13.7958 10.5334C12.817 9.603 12.0128 8.84181 12.0087 8.84181C11.9926 8.84181 8.28925 12.6609 8.28282 12.6763C8.28282 12.6763 9.67766 12.6916 11.4108 12.6763H14.543L14.6635 12.6504L14.6649 12.6539ZM19.2864 10.3495L21.0655 8.659L21.0414 8.63456C21.0029 8.59333 17.0397 5.12064 17.027 5.11651C17.0093 5.11651 17.0109 10.8161 17.0279 10.9844C17.0649 11.3549 17.1901 11.6581 17.432 11.9628C17.4657 12.0055 17.4962 12.0407 17.5011 12.0407C17.5011 12.0407 18.308 11.2793 19.2864 10.3495Z" fill="black"/>
</svg>
