<svg width="35" height="26" viewBox="0 0 35 26" fill="none" xmlns="http://www.w3.org/2000/svg">
<rect width="35" height="25.4545" rx="5.71429" fill="#CFE1F7"/>
<path d="M24.6247 8.64256L27 6.66727L24.6247 4.69264H18.0935V3.564C18.0935 3.25289 17.8274 3 17.4993 3C17.1719 3 16.9065 3.25289 16.9065 3.564V8.64256H10.3753L8 10.6172L10.3753 12.5918H16.9065V20.6023C15.9666 20.6521 15.2744 20.8138 15.2744 21.0085C15.2744 21.0583 15.3288 21.1061 15.4132 21.152C14.6537 21.2685 14.1609 21.4437 14.1609 21.6436C14.1609 21.9948 15.6549 22.2781 17.4993 22.2781C19.3451 22.2781 20.8384 21.9948 20.8384 21.6436C20.8384 21.4437 20.3463 21.2685 19.5861 21.152C19.6712 21.1068 19.7256 21.0583 19.7256 21.0085C19.7256 20.8138 19.0321 20.6521 18.0935 20.6023V8.64256H24.6247Z" fill="black"/>
</svg>
