<svg width="38" height="34" viewBox="0 0 38 34" fill="none" xmlns="http://www.w3.org/2000/svg">
<rect y="3.05176e-05" width="38" height="34" rx="10" fill="#CEE4FF"/>
<path d="M15.3022 16.9031C15.3022 16.483 15.6927 16.1424 16.1743 16.1424H17.6278V14.8746C17.6278 14.4545 18.0183 14.114 18.4999 14.114C18.9815 14.114 19.372 14.4545 19.372 14.8746V16.1424H20.8255C21.3071 16.1424 21.6976 16.483 21.6976 16.9031C21.6976 17.3232 21.3071 17.6638 20.8255 17.6638H19.372V18.9316C19.372 19.3517 18.9815 19.6923 18.4999 19.6923C18.0183 19.6923 17.6278 19.3517 17.6278 18.9316V17.6638H16.1743C15.6927 17.6638 15.3022 17.3232 15.3022 16.9031Z" fill="#1C274C"/>
<path fill-rule="evenodd" clip-rule="evenodd" d="M18.5 6C11.5964 6 6 10.8815 6 16.9031C6 22.9248 11.5964 27.8063 18.5 27.8063C25.4036 27.8063 31 22.9248 31 16.9031C31 10.8815 25.4036 6 18.5 6ZM17.6279 7.55176C12.3831 7.91883 8.19986 11.5677 7.77903 16.1424H10.3605C10.8421 16.1424 11.2326 16.483 11.2326 16.9031C11.2326 17.3232 10.8421 17.6638 10.3605 17.6638H7.77903C8.19986 22.2386 12.3831 25.8874 17.6279 26.2545V24.0028C17.6279 23.5827 18.0184 23.2422 18.5 23.2422C18.9816 23.2422 19.3721 23.5827 19.3721 24.0028V26.2545C24.6169 25.8874 28.8001 22.2386 29.2209 17.6638H26.6395C26.1579 17.6638 25.7674 17.3232 25.7674 16.9031C25.7674 16.483 26.1579 16.1424 26.6395 16.1424H29.2209C28.8001 11.5677 24.6169 7.91883 19.3721 7.55176V9.80342C19.3721 10.2235 18.9816 10.5641 18.5 10.5641C18.0184 10.5641 17.6279 10.2235 17.6279 9.80342V7.55176Z" fill="#1C274C"/>
</svg>
