<svg width="73" height="73" viewBox="0 0 73 73" fill="none" xmlns="http://www.w3.org/2000/svg">
<circle cx="36.5" cy="36.5" r="36.5" fill="#FEE2E2"/>
<path d="M44.5405 59.0206C47.0034 59.0206 49 56.7919 49 54.0426V27.1614C49 24.4122 47.0034 22.1834 44.5405 22.1834C42.0776 22.1834 40.0811 24.4122 40.0811 27.1614V54.0426C40.0811 56.7919 42.0776 59.0206 44.5405 59.0206Z" stroke="#DC2626" stroke-width="2.86669" stroke-linecap="round" stroke-linejoin="round"/>
<path d="M32.5 59.0207C34.9629 59.0207 36.9594 56.7919 36.9594 54.0427V38.1131C36.9594 35.3638 34.9629 33.1351 32.5 33.1351C30.0371 33.1351 28.0405 35.3638 28.0405 38.1131V54.0427C28.0405 56.7919 30.0371 59.0207 32.5 59.0207Z" stroke="#DC2626" stroke-width="2.86669" stroke-linecap="round" stroke-linejoin="round"/>
<path d="M20.4595 59.0206C22.9224 59.0206 24.9189 56.7919 24.9189 54.0426C24.9189 51.2934 22.9224 49.0646 20.4595 49.0646C17.9966 49.0646 16 51.2934 16 54.0426C16 56.7919 17.9966 59.0206 20.4595 59.0206Z" stroke="#DC2626" stroke-width="2.86669" stroke-linecap="round" stroke-linejoin="round"/>
</svg>
