<svg width="35" height="26" viewBox="0 0 35 26" fill="none" xmlns="http://www.w3.org/2000/svg">
<rect width="35" height="25.4545" rx="5.71429" fill="#CFE1F7"/>
<path fill-rule="evenodd" clip-rule="evenodd" d="M8 15.381C8 14.6612 8.61401 14.0778 9.37143 14.0778H11.4286C12.186 14.0778 12.8 14.6612 12.8 15.381V18.6392C12.8 19.359 12.186 19.9425 11.4286 19.9425H9.37143C8.61401 19.9425 8 19.359 8 18.6392V15.381ZM11.4286 15.6417C11.4286 15.4977 11.3058 15.381 11.1543 15.381H9.64571C9.49423 15.381 9.37143 15.4977 9.37143 15.6417V18.3785C9.37143 18.5225 9.49423 18.6392 9.64571 18.6392H11.1543C11.3058 18.6392 11.4286 18.5225 11.4286 18.3785V15.6417Z" fill="black"/>
<path fill-rule="evenodd" clip-rule="evenodd" d="M14.1714 4.30327C14.1714 3.58349 14.7854 3 15.5429 3H17.6C18.3574 3 18.9714 3.58349 18.9714 4.30327V18.6392C18.9714 19.359 18.3574 19.9425 17.6 19.9425H15.5429C14.7854 19.9425 14.1714 19.359 14.1714 18.6392V4.30327ZM17.6 4.56392C17.6 4.41997 17.4772 4.30327 17.3257 4.30327H15.8171C15.6657 4.30327 15.5429 4.41997 15.5429 4.56392V18.3785C15.5429 18.5225 15.6657 18.6392 15.8171 18.6392H17.3257C17.4772 18.6392 17.6 18.5225 17.6 18.3785V4.56392Z" fill="black"/>
<path fill-rule="evenodd" clip-rule="evenodd" d="M20.3429 9.51634C20.3429 8.79657 20.9568 8.21307 21.7143 8.21307H23.7714C24.5289 8.21307 25.1429 8.79657 25.1429 9.51634V18.6392C25.1429 19.359 24.5289 19.9425 23.7714 19.9425H21.7143C20.9568 19.9425 20.3429 19.359 20.3429 18.6392V9.51634ZM23.7714 9.77699C23.7714 9.63305 23.6486 9.51634 23.4971 9.51634H21.9886C21.8371 9.51634 21.7143 9.63305 21.7143 9.77699V18.3785C21.7143 18.5225 21.8371 18.6392 21.9886 18.6392H23.4971C23.6486 18.6392 23.7714 18.5225 23.7714 18.3785V9.77699Z" fill="black"/>
</svg>
