<svg width="73" height="73" viewBox="0 0 73 73" fill="none" xmlns="http://www.w3.org/2000/svg">
<circle cx="36.5" cy="36.5" r="36.5" fill="#F3E8FF"/>
<path d="M22 21.1656V51.3052H49V21.1656H22ZM24.25 28.7005H29.875V33.7238H24.25V28.7005ZM38.875 33.7238H32.125V28.7005H38.875V33.7238ZM38.875 36.2354V41.2587H32.125V36.2354H38.875ZM24.25 36.2354H29.875V41.2587H24.25V36.2354ZM24.25 48.7936V43.7703H29.875V48.7936H24.25ZM32.125 48.7936V43.7703H38.875V48.7936H32.125ZM46.75 48.7936H41.125V43.7703H46.75V48.7936ZM46.75 41.2587H41.125V36.2354H46.75V41.2587ZM46.75 33.7238H41.125V28.7005H46.75V33.7238ZM24.25 26.1889V23.6773H46.75V26.1889H24.25Z" fill="#9333EA"/>
</svg>
