<svg width="15" height="13" viewBox="0 0 15 13" fill="none" xmlns="http://www.w3.org/2000/svg">
<path d="M7.50018 8.32201C6.93905 8.32201 6.48256 7.87599 6.48256 7.32773C6.48256 7.30466 6.48302 7.28114 6.48487 7.25852L3.02365 5.86482C2.85837 5.79787 2.77966 5.61195 2.84772 5.45091C2.89772 5.33194 3.01532 5.25549 3.1468 5.25549C3.18986 5.25549 3.23153 5.26364 3.27042 5.27902L6.73256 6.67363C6.9247 6.45966 7.20897 6.333 7.50018 6.333C7.67889 6.333 7.8238 6.47459 7.8238 6.6492C7.8238 6.82336 7.67889 6.96494 7.50018 6.96494C7.36314 6.96494 7.23767 7.03913 7.17239 7.1581C7.15897 7.20379 7.14878 7.22233 7.13721 7.24133C7.13396 7.25943 7.12887 7.29516 7.12887 7.32773C7.12887 7.52722 7.29554 7.69007 7.50018 7.69007C7.70482 7.69007 7.87102 7.52767 7.87102 7.32773C7.87102 7.15312 8.01594 7.01154 8.19465 7.01154C8.37335 7.01154 8.51827 7.15312 8.51827 7.32773C8.51827 7.87599 8.06177 8.32201 7.50018 8.32201Z" fill="#010101"/>
<path d="M13.5009 11.4889C13.4375 11.4889 13.3754 11.4708 13.3217 11.4364C13.2495 11.3899 13.1999 11.3193 13.1828 11.237C13.1652 11.1537 13.1819 11.0691 13.2305 10.9986C13.406 10.7367 13.5638 10.4612 13.7004 10.1789L13.1509 9.9577C13.0698 9.92422 13.0073 9.86316 12.9749 9.7849C12.9425 9.70619 12.9425 9.62024 12.9763 9.54289C13.0249 9.42437 13.143 9.34792 13.2754 9.34792C13.3175 9.34792 13.3587 9.35606 13.3981 9.37144L13.9486 9.59446C14.1796 8.96659 14.3125 8.31067 14.344 7.64345H13.7504C13.5722 7.64345 13.4273 7.50186 13.4273 7.3277C13.4273 7.15309 13.5722 7.01151 13.7504 7.01151H14.3444C14.3129 6.34066 14.1805 5.6843 13.95 5.06005L13.399 5.28306C13.3611 5.29889 13.3189 5.30703 13.2749 5.30703C13.143 5.30703 13.0254 5.23058 12.9754 5.11161C12.9425 5.03381 12.9425 4.94786 12.9754 4.8696C13.0083 4.7918 13.0703 4.73073 13.1509 4.69816L13.7032 4.47425C13.412 3.87352 13.031 3.31803 12.5684 2.82315L12.1485 3.23298C12.0879 3.29269 12.0064 3.32526 11.9203 3.32526C11.8332 3.32526 11.7518 3.29269 11.6911 3.23298C11.63 3.17372 11.5962 3.09366 11.5962 3.00907C11.5962 2.92448 11.63 2.84486 11.6916 2.78515L12.111 2.37532C11.6045 1.92432 11.036 1.55203 10.4207 1.2675L10.192 1.80716C10.1415 1.92568 10.0239 2.00212 9.8929 2.00212C9.8503 2.00212 9.80817 1.99398 9.76882 1.9786C9.68872 1.94648 9.62622 1.88542 9.59289 1.80671C9.56048 1.72845 9.56002 1.64295 9.59243 1.5647L9.8216 1.02549C9.18176 0.801121 8.51045 0.6722 7.82432 0.640987V1.22136C7.82432 1.39552 7.6794 1.5371 7.50069 1.5371C7.32245 1.5371 7.17754 1.39552 7.17754 1.22136V0.640535C6.48863 0.671295 5.81731 0.800669 5.17979 1.02504L5.40943 1.56424C5.47656 1.72528 5.39739 1.9112 5.23257 1.97815C5.19275 1.99353 5.15108 2.00122 5.10849 2.00122C4.97793 2.00122 4.86033 1.92522 4.80987 1.80761L4.58023 1.26705C3.96494 1.55113 3.3964 1.92341 2.8899 2.37487L3.30982 2.7856C3.37047 2.84486 3.40473 2.92402 3.40473 3.00862C3.40473 3.09366 3.37094 3.17282 3.30982 3.23253C3.24964 3.29224 3.16815 3.32481 3.08065 3.32481C2.99315 3.32481 2.91166 3.29224 2.85148 3.23253L2.43109 2.8227C1.96812 3.31938 1.58709 3.87397 1.29773 4.47379L1.84959 4.69726C1.92923 4.72937 1.99173 4.78999 2.0246 4.86825C2.05793 4.9465 2.0584 5.03245 2.0246 5.11116C1.9746 5.23013 1.857 5.30658 1.72552 5.30658C1.68107 5.30658 1.63894 5.29799 1.60005 5.2817L1.04957 5.05914C0.819933 5.68294 0.687521 6.33931 0.655576 7.01105H1.25004C1.42875 7.01105 1.57412 7.15264 1.57412 7.32725C1.57412 7.50141 1.42875 7.64299 1.25004 7.64299H0.655576C0.687521 8.31248 0.820859 8.9684 1.05188 9.594L1.60144 9.37099C1.64218 9.35561 1.68339 9.34747 1.72505 9.34747C1.857 9.34747 1.97506 9.42437 2.02506 9.54334C2.0584 9.62115 2.0584 9.70664 2.02506 9.7849C1.99219 9.86316 1.92969 9.92422 1.85006 9.95679L1.3005 10.1784C1.43662 10.4603 1.59496 10.7357 1.77135 10.9986C1.81904 11.0687 1.83524 11.1537 1.81765 11.2361C1.80006 11.3188 1.75052 11.3899 1.67829 11.436C1.62598 11.4699 1.56394 11.488 1.50051 11.488C1.39125 11.488 1.28985 11.4346 1.22967 11.3451C0.425013 10.1504 0 8.76077 0 7.3277C0 5.36991 0.780117 3.52973 2.19683 2.14597C3.61307 0.761767 5.49647 0 7.50023 0C9.50492 0 11.3883 0.762219 12.8036 2.14597C14.2203 3.52973 15 5.36991 15 7.3277C15 8.76122 14.5754 10.1504 13.7717 11.346C13.7115 11.4355 13.6101 11.4889 13.5009 11.4889Z" fill="#010101"/>
<path d="M5.41404 12.1602C4.97977 12.1602 4.62744 11.8155 4.62744 11.3921V10.4883C4.62744 10.064 4.98023 9.71979 5.41404 9.71979H9.57806C10.0119 9.71979 10.3642 10.0645 10.3642 10.4883V11.3921C10.3642 11.816 10.0114 12.1602 9.57806 12.1602H5.41404ZM5.41404 10.3522C5.33719 10.3522 5.27468 10.4132 5.27468 10.4883V11.3921C5.27468 11.4672 5.33719 11.5283 5.41404 11.5283H9.57806C9.65491 11.5283 9.71741 11.4672 9.71741 11.3921V10.4883C9.71741 10.4132 9.65491 10.3522 9.57806 10.3522H5.41404Z" fill="#010101"/>
<path d="M7.26454 11.256C7.08583 11.256 6.94092 11.1144 6.94092 10.9402C6.94092 10.7656 7.08583 10.624 7.26454 10.624H7.72752C7.90576 10.624 8.05067 10.7656 8.05067 10.9402C8.05067 11.1144 7.90576 11.256 7.72752 11.256H7.26454Z" fill="#010101"/>
<path d="M6.10756 11.256C5.92885 11.256 5.78394 11.1144 5.78394 10.9402C5.78394 10.7656 5.92885 10.624 6.10756 10.624H6.57053C6.74924 10.624 6.89416 10.7656 6.89416 10.9402C6.89416 11.1144 6.74924 11.256 6.57053 11.256H6.10756Z" fill="#010101"/>
<path d="M8.42152 11.256C8.24281 11.256 8.0979 11.1144 8.0979 10.9402C8.0979 10.7656 8.24281 10.624 8.42152 10.624H8.88404C9.06274 10.624 9.20766 10.7656 9.20766 10.9402C9.20766 11.1144 9.06274 11.256 8.88404 11.256H8.42152Z" fill="#010101"/>
</svg>
