<svg width="20" height="12" viewBox="0 0 20 12" fill="none" xmlns="http://www.w3.org/2000/svg">
<path d="M5.7646 8.44395C5.76156 8.41365 5.75179 8.38575 5.75179 8.35545V8.09587C5.75179 7.97232 5.77253 7.85055 5.81406 7.73471C5.81406 7.73471 6.47876 6.86865 6.7931 5.85109C6.44883 5.1442 6.13633 4.26449 6.13633 3.39246C6.13633 3.1899 6.1516 2.99389 6.17297 2.8008C5.72437 2.34342 5.11826 2.08441 4.44868 2.08441C3.06619 2.08441 1.94437 3.18215 1.94437 4.88816C1.94437 6.25319 3.08576 7.73467 3.08576 7.73467C3.12604 7.85051 3.14682 7.97228 3.14682 8.09583V8.35541C3.14682 8.67916 2.95271 8.97379 2.64997 9.10864L0.837791 9.82917C0.416611 10.0181 0.116918 10.3947 0.033323 10.8378L0.00218959 11.2257C-0.0136701 11.4277 0.0571125 11.6267 0.198717 11.7746C0.339696 11.9237 0.538098 12.0074 0.746227 12.0074H3.70831L3.82976 10.4885L3.83769 10.4476C3.98601 9.65099 4.52681 8.97379 5.28241 8.63522L5.7646 8.44395Z" fill="#FFC107"/>
<path d="M19.9662 10.8378C19.8832 10.3947 19.5835 10.018 19.1624 9.82917L17.349 9.10864C17.0462 8.97379 16.8533 8.67916 16.8533 8.35541V8.09583C16.8533 7.97228 16.8735 7.85051 16.915 7.73467C16.915 7.73467 18.0558 6.25319 18.0558 4.88816C18.0558 3.18215 16.9345 2.08441 15.5496 2.08441C14.8813 2.08441 14.2752 2.34342 13.8253 2.80198C13.8473 2.99446 13.8626 3.18987 13.8626 3.39242C13.8626 4.26384 13.5507 5.14359 13.207 5.85044C13.5207 6.868 14.1867 7.73467 14.1867 7.73467C14.2269 7.85051 14.2483 7.97228 14.2483 8.09583V8.35541C14.2483 8.38571 14.2379 8.41362 14.2349 8.44392L14.6841 8.62214C15.4714 8.97262 16.0122 9.64977 16.1624 10.4463L16.1697 10.4879L16.2906 12.0074H19.2539C19.462 12.0074 19.6604 11.9237 19.8008 11.7746C19.9424 11.6267 20.0132 11.4277 19.9973 11.2257L19.9662 10.8378Z" fill="#FFC107"/>
<path d="M14.3701 9.37234L12.1765 8.49974C11.8103 8.33577 11.5765 7.97937 11.5765 7.58851V7.2737C11.5765 7.1252 11.601 6.97728 11.6516 6.8365C11.6516 6.8365 13.0311 5.04496 13.0311 3.3924C13.0311 1.32759 11.6742 0 9.99999 0C8.32636 0 6.96891 1.32763 6.96891 3.3924C6.96891 5.04496 8.34956 6.8365 8.34956 6.8365C8.39902 6.97728 8.42464 7.1252 8.42464 7.2737V7.58851C8.42464 7.97937 8.18905 8.33577 7.82342 8.49974L5.62979 9.37234C5.12013 9.59984 4.75696 10.056 4.65688 10.593L4.54395 12.0074H9.99999H15.456L15.3443 10.593C15.243 10.0561 14.8798 9.59987 14.3701 9.37234Z" fill="#FFC107"/>
</svg>
