<svg width="73" height="73" viewBox="0 0 73 73" fill="none" xmlns="http://www.w3.org/2000/svg">
<circle cx="36.5" cy="36.5" r="36.5" fill="#DBEAFE"/>
<path d="M37 19.1043C28.1631 19.1043 21 27.1004 21 36.9648C21 39.0242 21.2163 40.365 21.8256 42.4268C23.0139 46.2573 29.2481 39.053 31.9304 43.3027C34.6126 47.5501 25.8813 51.2808 31.7366 53.8328C34.4006 54.5549 35.1541 54.8252 37 54.8252C45.8369 54.8252 53 46.8304 53 36.966C53 27.1004 45.8369 19.1043 37 19.1043ZM44.7627 25.0578C46.586 25.0578 48.066 26.4636 48.066 28.1985C48.066 29.9311 46.586 31.3381 44.7627 31.3381C42.9382 31.3381 41.4583 29.9311 41.4583 28.1985C41.4583 26.4636 42.9372 25.0578 44.7627 25.0578ZM26.1019 38.0906C24.2775 38.0906 22.7986 36.6836 22.7986 34.9498C22.7986 33.2161 24.2786 31.8091 26.1019 31.8091C27.9274 31.8091 29.4074 33.2161 29.4074 34.9498C29.4074 36.6836 27.9285 38.0906 26.1019 38.0906ZM29.9714 30.8599C28.147 30.8599 26.667 29.4541 26.667 27.7191C26.667 25.9842 28.147 24.5784 29.9714 24.5784C31.7958 24.5784 33.2758 25.9842 33.2758 27.7191C33.2758 29.4541 31.7958 30.8599 29.9714 30.8599ZM34.0002 24.1374C34.0002 22.4037 35.4791 20.9955 37.3046 20.9955C39.128 20.9955 40.6069 22.4037 40.6069 24.1374C40.6069 25.8712 39.1269 27.2782 37.3046 27.2782C35.4791 27.2782 34.0002 25.8712 34.0002 24.1374ZM39.6651 52.2985C37.8396 52.2985 36.3617 50.8927 36.3617 49.1589C36.3617 47.4251 37.8417 46.0194 39.6651 46.0194C41.4895 46.0194 42.9695 47.4251 42.9695 49.1589C42.9695 50.8927 41.4895 52.2985 39.6651 52.2985ZM46.2728 46.9253C44.4484 46.9253 42.9695 45.5159 42.9695 43.7846C42.9695 42.0508 44.4484 40.6438 46.2728 40.6438C48.0961 40.6438 49.5761 42.0508 49.5761 43.7846C49.5772 45.5159 48.0983 46.9253 46.2728 46.9253ZM48.066 39.0542C46.2416 39.0542 44.7616 37.6484 44.7616 35.9135C44.7616 34.1785 46.2416 32.7727 48.066 32.7727C49.8904 32.7727 51.3704 34.1785 51.3704 35.9135C51.3704 37.6484 49.8926 39.0542 48.066 39.0542Z" fill="#2563EB"/>
</svg>
