<svg width="39" height="39" viewBox="0 0 39 39" fill="none" xmlns="http://www.w3.org/2000/svg">
<circle cx="19.8226" cy="19.1774" r="19.1774" fill="#2563EB"/>
<path fill-rule="evenodd" clip-rule="evenodd" d="M24.3129 9.63525H15.8935C12.7936 9.63525 10.2806 12.1482 10.2806 15.2482V23.6675C10.2806 26.7674 12.7936 29.2804 15.8935 29.2804H24.3129C27.4128 29.2804 29.9258 26.7674 29.9258 23.6675V15.2482C29.9258 12.1482 27.4128 9.63525 24.3129 9.63525Z" stroke="white" stroke-width="2.10484" stroke-linecap="round" stroke-linejoin="round"/>
<path fill-rule="evenodd" clip-rule="evenodd" d="M20.1032 23.6679C17.7782 23.6679 15.8936 21.7832 15.8936 19.4582C15.8936 17.1332 17.7782 15.2485 20.1032 15.2485C22.4282 15.2485 24.3129 17.1332 24.3129 19.4582C24.3129 20.5746 23.8693 21.6454 23.0799 22.4349C22.2904 23.2243 21.2196 23.6679 20.1032 23.6679Z" stroke="white" stroke-width="2.10484" stroke-linecap="round" stroke-linejoin="round"/>
<path d="M25.7161 13.1436C25.3286 13.1436 25.0145 13.4578 25.0145 13.8453C25.0145 14.2328 25.3286 14.5469 25.7161 14.5469C26.1036 14.5469 26.4178 14.2328 26.4178 13.8453C26.4178 13.4578 26.1036 13.1436 25.7161 13.1436Z" stroke="white" stroke-width="1.40323" stroke-linecap="round"/>
</svg>
