<svg width="39" height="39" viewBox="0 0 39 39" fill="none" xmlns="http://www.w3.org/2000/svg">
<circle cx="19.2742" cy="19.1774" r="19.1774" fill="#2563EB"/>
<path fill-rule="evenodd" clip-rule="evenodd" d="M26.5965 25.8023H23.6676V20.6774C23.6676 19.2715 23.0474 18.4872 21.9351 18.4872C20.7247 18.4872 20.0064 19.3045 20.0064 20.6774V25.8023H17.0775V16.2833H20.0064V17.3538C20.0064 17.3538 20.9254 15.7413 22.9961 15.7413C25.0676 15.7413 26.5965 17.0054 26.5965 19.6209V25.8023ZM13.74 14.7609C12.7522 14.7609 11.9519 13.9541 11.9519 12.959C11.9519 11.9646 12.7522 11.1577 13.74 11.1577C14.7271 11.1577 15.5274 11.9646 15.5274 12.959C15.5281 13.9541 14.7271 14.7609 13.74 14.7609ZM11.9519 25.8023H15.613V16.2833H11.9519V25.8023Z" fill="#F5F5F5"/>
</svg>
