<svg width="35" height="26" viewBox="0 0 35 26" fill="none" xmlns="http://www.w3.org/2000/svg">
<rect width="35" height="25.4545" rx="5.71429" fill="#CFE1F7"/>
<path d="M25.9859 9.77083C27.0983 8.14551 26.6135 5.97101 24.9032 4.91396C23.1928 3.85691 20.9046 4.31759 19.7923 5.94291L17.1069 9.86679C15.9945 11.4921 16.4793 13.6666 18.1896 14.7237C19.9 15.7807 22.1882 15.32 23.3005 13.6947L25.9859 9.77083Z" stroke="black" stroke-width="2" stroke-linecap="round"/>
<path d="M19.8931 14.3806C21.0055 12.7552 20.5207 10.5808 18.8104 9.5237C17.1 8.46665 14.8118 8.92733 13.6995 10.5527L11.0141 14.4765C9.90173 16.1019 10.3865 18.2764 12.0968 19.3334C13.8072 20.3905 16.0954 19.9298 17.2077 18.3045L19.8931 14.3806Z" stroke="black" stroke-width="2" stroke-linecap="round"/>
</svg>
