<svg width="38" height="34" viewBox="0 0 38 34" fill="none" xmlns="http://www.w3.org/2000/svg">
<rect width="38" height="34" rx="10" fill="#CEE4FF"/>
<path d="M18.5005 26.3056C18.0848 26.3056 17.6933 26.1649 17.3989 25.9092L8.45409 18.1077C7.84885 17.5775 7.84885 16.7144 8.45278 16.1853L11.7295 13.3278C11.9314 13.1511 12.2422 13.1093 12.4967 13.2254C12.7498 13.341 12.8888 13.5869 12.839 13.8329C12.8055 13.9964 12.7904 14.1274 12.7904 14.2464C12.7904 15.4978 13.9576 16.5371 15.393 16.5371C16.8297 16.5371 17.8782 15.4978 17.8782 14.2464C17.8782 12.9932 16.8297 11.9751 15.393 11.9751C15.2586 11.9751 15.1091 11.9889 14.9216 12.0175C14.637 12.0632 14.3576 11.9402 14.2252 11.7195C14.0927 11.4975 14.1406 11.2264 14.3425 11.0503L17.3976 8.38493C17.9891 7.87131 19.0127 7.87245 19.6015 8.38379L21.8382 10.3359C22.3051 9.07014 23.6677 8.151 25.2709 8.151C27.2591 8.151 28.8768 9.5626 28.8768 11.2974C28.8768 12.6964 27.8244 13.8843 26.3719 14.291L28.545 16.1853C29.1516 16.7161 29.1516 17.5786 28.5457 18.1088L19.6022 25.9104C19.3064 26.1678 18.9156 26.3085 18.4999 26.3085L18.5005 26.3056ZM11.5924 15.0643L9.3813 16.9924C9.28621 17.0759 9.28621 17.2149 9.38261 17.2995L18.3241 25.0993C18.4494 25.2074 18.5484 25.2092 18.6763 25.0982L27.6178 17.2984C27.7135 17.2137 27.7135 17.077 27.6171 16.9918L24.4637 14.243C24.2664 14.0708 24.2152 13.8083 24.3365 13.5892C24.4578 13.3701 24.7228 13.2403 25.0028 13.2706L25.1024 13.2821C25.1575 13.2883 25.2126 13.2964 25.2703 13.2964C26.5358 13.2964 27.5647 12.399 27.5647 11.2962C27.5647 10.1918 26.5352 9.29378 25.2703 9.29378C24.0054 9.29378 22.9765 10.1923 22.9765 11.2962C22.9765 11.342 22.9844 11.3866 22.9916 11.4312L23.0054 11.533C23.0349 11.7744 22.8874 12.0054 22.6362 12.1101C22.387 12.2136 22.0867 12.1696 21.8907 11.998L18.675 9.19139C18.5491 9.08272 18.4507 9.08158 18.3228 9.19254L16.3327 10.9284C18.0396 11.2968 19.189 12.6437 19.189 14.2447C19.189 16.127 17.551 17.6787 15.3924 17.6787C13.5576 17.6787 12.0141 16.5514 11.5924 15.0643Z" fill="black"/>
</svg>
