<svg width="21" height="20" viewBox="0 0 21 20" fill="none" xmlns="http://www.w3.org/2000/svg">
<path d="M17.1382 11.5821C17.14 11.847 17.0545 12.106 16.8935 12.3233C16.7325 12.5406 16.5039 12.7057 16.2391 12.7957L11.7591 14.3491L10.1086 18.5656C10.0114 18.8138 9.83566 19.0281 9.60508 19.1794C9.3745 19.3307 9.10017 19.4118 8.81908 19.4118C8.53799 19.4118 8.26366 19.3307 8.03309 19.1794C7.80251 19.0281 7.62677 18.8138 7.52957 18.5656L5.87906 14.3491L1.39907 12.7957C1.13532 12.7042 0.907719 12.5388 0.746956 12.3218C0.586193 12.1048 0.5 11.8466 0.5 11.5821C0.5 11.3175 0.586193 11.0593 0.746956 10.8423C0.907719 10.6253 1.13532 10.4599 1.39907 10.3684L5.87906 8.81498L7.52957 4.59852C7.62677 4.35029 7.80251 4.13607 8.03309 3.98477C8.26366 3.83346 8.53799 3.75234 8.81908 3.75234C9.10017 3.75234 9.3745 3.83346 9.60508 3.98477C9.83566 4.13607 10.0114 4.35029 10.1086 4.59852L11.7591 8.81498L16.2391 10.3684C16.5039 10.4584 16.7325 10.6235 16.8935 10.8408C17.0545 11.0582 17.14 11.3171 17.1382 11.5821ZM12.2546 3.82173H13.6289V5.11512C13.6289 5.28663 13.7013 5.45112 13.8301 5.5724C13.959 5.69368 14.1338 5.76181 14.316 5.76181C14.4982 5.76181 14.673 5.69368 14.8018 5.5724C14.9307 5.45112 15.0031 5.28663 15.0031 5.11512V3.82173H16.3773C16.5596 3.82173 16.7343 3.7536 16.8632 3.63232C16.992 3.51104 17.0644 3.34655 17.0644 3.17503C17.0644 3.00352 16.992 2.83903 16.8632 2.71775C16.7343 2.59647 16.5596 2.52834 16.3773 2.52834H15.0031V1.23495C15.0031 1.06344 14.9307 0.898948 14.8018 0.777669C14.673 0.65639 14.4982 0.588257 14.316 0.588257C14.1338 0.588257 13.959 0.65639 13.8301 0.777669C13.7013 0.898948 13.6289 1.06344 13.6289 1.23495V2.52834H12.2546C12.0724 2.52834 11.8976 2.59647 11.7688 2.71775C11.6399 2.83903 11.5675 3.00352 11.5675 3.17503C11.5675 3.34655 11.6399 3.51104 11.7688 3.63232C11.8976 3.7536 12.0724 3.82173 12.2546 3.82173ZM19.8129 6.40851H19.1258V5.76181C19.1258 5.5903 19.0534 5.42581 18.9245 5.30453C18.7957 5.18325 18.6209 5.11512 18.4387 5.11512C18.2564 5.11512 18.0817 5.18325 17.9528 5.30453C17.8239 5.42581 17.7515 5.5903 17.7515 5.76181V6.40851H17.0644C16.8822 6.40851 16.7074 6.47664 16.5786 6.59792C16.4497 6.7192 16.3773 6.88369 16.3773 7.0552C16.3773 7.22672 16.4497 7.3912 16.5786 7.51248C16.7074 7.63376 16.8822 7.7019 17.0644 7.7019H17.7515V8.34859C17.7515 8.5201 17.8239 8.68459 17.9528 8.80587C18.0817 8.92715 18.2564 8.99529 18.4387 8.99529C18.6209 8.99529 18.7957 8.92715 18.9245 8.80587C19.0534 8.68459 19.1258 8.5201 19.1258 8.34859V7.7019H19.8129C19.9951 7.7019 20.1699 7.63376 20.2987 7.51248C20.4276 7.3912 20.5 7.22672 20.5 7.0552C20.5 6.88369 20.4276 6.7192 20.2987 6.59792C20.1699 6.47664 19.9951 6.40851 19.8129 6.40851Z" fill="#FFC107"/>
</svg>
