<svg width="50" height="50" viewBox="0 0 50 50" fill="none" xmlns="http://www.w3.org/2000/svg">
<rect width="50" height="50" fill="#B2AEFB"/>
<path d="M23.3845 11.2288C23.7379 10.4359 23.9147 10.0394 24.1608 9.91733C24.3745 9.81125 24.6255 9.81125 24.8392 9.91733C25.0854 10.0394 25.2621 10.4359 25.6156 11.2288L28.4308 17.5447C28.5354 17.7791 28.5876 17.8963 28.6685 17.9861C28.74 18.0655 28.8275 18.129 28.925 18.1725C29.0354 18.2217 29.163 18.2351 29.4183 18.2621L36.295 18.9879C37.1584 19.079 37.59 19.1245 37.7822 19.3209C37.9491 19.4914 38.0266 19.7302 37.9918 19.9662C37.9518 20.238 37.6294 20.5285 36.9845 21.1097L31.8476 25.739C31.6571 25.9108 31.5616 25.9967 31.5013 26.1013C31.4479 26.194 31.4145 26.2967 31.4033 26.403C31.3907 26.5231 31.4172 26.6486 31.4705 26.8998L32.9053 33.6642C33.0854 34.5135 33.1755 34.938 33.0482 35.1814C32.9375 35.393 32.7345 35.5405 32.4992 35.5803C32.2284 35.6261 31.8523 35.4093 31.1003 34.9756L25.1102 31.5207C24.888 31.3924 24.7768 31.3285 24.6586 31.3033C24.5541 31.2811 24.446 31.2811 24.3414 31.3033C24.2232 31.3285 24.1121 31.3924 23.8898 31.5207L17.8998 34.9756C17.1478 35.4093 16.7718 35.6261 16.5009 35.5803C16.2656 35.5405 16.0625 35.393 15.9519 35.1814C15.8246 34.938 15.9147 34.5135 16.0948 33.6642L17.5295 26.8998C17.5828 26.6486 17.6094 26.5231 17.5968 26.403C17.5856 26.2967 17.5522 26.194 17.4988 26.1013C17.4384 25.9967 17.343 25.9108 17.1524 25.739L12.0156 21.1097C11.3707 20.5285 11.0483 20.238 11.0082 19.9662C10.9734 19.7302 11.0509 19.4914 11.2179 19.3209C11.41 19.1245 11.8417 19.079 12.7051 18.9879L19.5818 18.2621C19.837 18.2351 19.9646 18.2217 20.075 18.1725C20.1726 18.129 20.26 18.0655 20.3316 17.9861C20.4124 17.8963 20.4647 17.7791 20.5692 17.5447L23.3845 11.2288Z" stroke="black" stroke-width="2.75" stroke-linecap="round" stroke-linejoin="round"/>
</svg>
