<svg width="35" height="26" viewBox="0 0 35 26" fill="none" xmlns="http://www.w3.org/2000/svg">
<rect width="35" height="25.4545" rx="5.71429" fill="#CFE1F7"/>
<path d="M17.2563 4.88128C17.4919 4.37893 17.6098 4.12775 17.7739 4.0504C17.9163 3.9832 18.0837 3.9832 18.2262 4.0504C18.3902 4.12775 18.5081 4.37893 18.7437 4.88128L20.6206 8.88259C20.6903 9.0311 20.7251 9.10535 20.779 9.16221C20.8267 9.21253 20.885 9.25277 20.95 9.28032C21.0236 9.31147 21.1087 9.32 21.2789 9.33706L25.8634 9.79688C26.4389 9.85461 26.7267 9.88347 26.8548 10.0078C26.966 10.1159 27.0178 10.2671 26.9945 10.4167C26.9679 10.5889 26.7529 10.7729 26.323 11.1412L22.8984 14.074C22.7714 14.1828 22.7078 14.2372 22.6676 14.3035C22.6319 14.3622 22.6096 14.4273 22.6022 14.4946C22.5938 14.5707 22.6115 14.6502 22.647 14.8093L23.6035 19.0948C23.7236 19.6328 23.7837 19.9018 23.6988 20.056C23.625 20.1901 23.4896 20.2835 23.3328 20.3087C23.1522 20.3378 22.9016 20.2004 22.4002 19.9256L18.4068 17.7368C18.2586 17.6556 18.1845 17.615 18.1058 17.5991C18.036 17.5851 17.964 17.5851 17.8943 17.5991C17.8155 17.615 17.7414 17.6556 17.5932 17.7368L13.5999 19.9256C13.0985 20.2004 12.8478 20.3378 12.6673 20.3087C12.5104 20.2835 12.375 20.1901 12.3013 20.056C12.2164 19.9018 12.2764 19.6328 12.3965 19.0948L13.353 14.8093C13.3885 14.6502 13.4063 14.5707 13.3978 14.4946C13.3904 14.4273 13.3681 14.3622 13.3325 14.3035C13.2922 14.2372 13.2287 14.1828 13.1016 14.074L9.67708 11.1412C9.24715 10.7729 9.03218 10.5889 9.00545 10.4167C8.98224 10.2671 9.03396 10.1159 9.14524 10.0078C9.27337 9.88347 9.56115 9.85461 10.1367 9.79688L14.7212 9.33706C14.8914 9.32 14.9764 9.31147 15.05 9.28032C15.1151 9.25277 15.1734 9.21253 15.2211 9.16221C15.275 9.10535 15.3098 9.0311 15.3794 8.88259L17.2563 4.88128Z" stroke="black" stroke-width="2.03561" stroke-linecap="round" stroke-linejoin="round"/>
</svg>
