<svg width="22" height="22" viewBox="0 0 22 22" fill="none" xmlns="http://www.w3.org/2000/svg">
<path d="M15.75 2.05713C14.2791 1.2258 12.5714 0.75 10.75 0.75C5.22715 0.75 0.75 5.12443 0.75 10.5206C0.75 12.0836 1.12562 13.5608 1.79346 14.8709C1.97094 15.219 2.03001 15.617 1.92712 15.9927L1.33151 18.1677C1.07295 19.1118 1.95701 19.9756 2.92335 19.723L5.14939 19.1411C5.53393 19.0405 5.94121 19.0983 6.29753 19.2716C7.63837 19.9242 9.1503 20.2911 10.75 20.2911C16.2728 20.2911 20.75 15.9167 20.75 10.5206C20.75 8.74096 20.263 7.07241 19.4122 5.63529" stroke="white" stroke-width="1.5" stroke-linecap="round"/>
</svg>
