<svg width="11" height="12" viewBox="0 0 11 12" fill="none" xmlns="http://www.w3.org/2000/svg">
<path d="M3.1408 1.39313C4.26786 0.764373 4.83142 0.449997 5.4502 0.449997C6.06897 0.449997 6.63253 0.764373 7.75958 1.39313L8.14081 1.60579C9.26786 2.23455 9.83142 2.54893 10.1408 3.06675C10.4502 3.58457 10.4502 4.21333 10.4502 5.47086V5.89614C10.4502 7.15369 10.4502 7.78245 10.1408 8.30025C9.83142 8.81805 9.26786 9.13243 8.14081 9.76118L7.75958 9.97387C6.63253 10.6026 6.06897 10.917 5.4502 10.917C4.83142 10.917 4.26786 10.6026 3.1408 9.97387L2.7596 9.76118C1.63253 9.13243 1.069 8.81805 0.759595 8.30025C0.450195 7.78245 0.450195 7.15369 0.450195 5.89614V5.47086C0.450195 4.21333 0.450195 3.58457 0.759595 3.06675C1.069 2.54893 1.63253 2.23455 2.7596 1.60579L3.1408 1.39313Z" stroke="white" stroke-width="0.9"/>
</svg>
