<svg width="13" height="13" viewBox="0 0 13 13" fill="none" xmlns="http://www.w3.org/2000/svg">
<path d="M1.21713 6.35224C1.21706 5.65816 1.36029 4.9712 1.63825 4.33245C1.9162 3.69371 2.32317 3.1163 2.83481 2.63479C3.34644 2.15328 3.95223 1.77755 4.61592 1.53008C5.27961 1.28261 5.98758 1.16849 6.69746 1.19455C6.77744 1.19742 6.85722 1.18486 6.93224 1.15761C7.00725 1.13035 7.07604 1.08892 7.13468 1.03569C7.19331 0.982459 7.24063 0.918466 7.27395 0.847364C7.30727 0.776261 7.32593 0.699443 7.32887 0.621295C7.3318 0.543147 7.31895 0.4652 7.29106 0.391903C7.26316 0.318606 7.22076 0.251396 7.16628 0.194109C7.1118 0.136823 7.0463 0.0905821 6.97353 0.0580271C6.90076 0.025472 6.82214 0.00724036 6.74215 0.00437302C5.56061 -0.038482 4.38948 0.23431 3.35481 0.793387C2.32014 1.35246 1.46111 2.17666 0.870179 3.17725C0.27925 4.17785 -0.0212012 5.31696 0.00116341 6.47199C0.023528 7.62701 0.367862 8.7542 0.997103 9.73224C1.62634 10.7103 2.51667 11.5021 3.57224 12.0226C4.62781 12.543 5.80867 12.7723 6.9877 12.6859C8.16674 12.5994 9.29931 12.2003 10.2635 11.5317C11.2277 10.8631 11.9871 9.95027 12.4598 8.89139C12.5244 8.74662 12.5276 8.58268 12.4685 8.43564C12.4095 8.2886 12.2931 8.17051 12.1449 8.10733C11.9967 8.04416 11.8289 8.04109 11.6784 8.09878C11.5279 8.15648 11.4071 8.27023 11.3424 8.415C11.2874 8.53703 11.2278 8.65701 11.1636 8.77467C10.6105 9.79171 9.72515 10.5988 8.64839 11.0674C7.57163 11.536 6.36539 11.6392 5.22164 11.3607C4.07789 11.0821 3.06237 10.4378 2.33671 9.5302C1.61104 8.62261 1.21694 7.50394 1.21713 6.35224ZM8.71439 0.98335C8.79001 0.84392 8.91918 0.739516 9.07352 0.693069C9.22787 0.646621 9.39477 0.661928 9.53758 0.735628C9.68141 0.810263 9.822 0.88966 9.95852 0.973822C10.0263 1.01548 10.085 1.06976 10.1313 1.13359C10.1776 1.19741 10.2105 1.26951 10.2283 1.34578C10.2461 1.42205 10.2483 1.501 10.2348 1.57811C10.2214 1.65522 10.1925 1.72899 10.1499 1.79519C10.1073 1.8614 10.0517 1.91876 9.98637 1.96399C9.92105 2.00922 9.84726 2.04143 9.76919 2.0588C9.69113 2.07616 9.61033 2.07833 9.53141 2.06518C9.45249 2.05204 9.377 2.02383 9.30923 1.98218C9.19797 1.91348 9.08412 1.84885 8.96793 1.78845C8.89716 1.75186 8.83447 1.70201 8.78342 1.64175C8.73238 1.58149 8.69399 1.51199 8.67045 1.43722C8.6469 1.36246 8.63866 1.28389 8.6462 1.20601C8.65374 1.12814 8.67691 1.05247 8.71439 0.98335ZM11.1636 2.78568C11.3004 2.7016 11.4657 2.67403 11.6233 2.70901C11.7809 2.744 11.9178 2.83869 12.0039 2.97227C12.09 3.10566 12.1713 3.24222 12.2477 3.38355C12.2851 3.45268 12.3083 3.52834 12.3158 3.60621C12.3233 3.68409 12.3151 3.76264 12.2916 3.8374C12.268 3.91216 12.2296 3.98166 12.1786 4.04193C12.1276 4.10219 12.0649 4.15205 11.9941 4.18865C11.9234 4.22524 11.8459 4.24787 11.7662 4.25523C11.6865 4.26258 11.6061 4.25453 11.5296 4.23153C11.4531 4.20852 11.382 4.17102 11.3203 4.12116C11.2586 4.0713 11.2076 4.01005 11.1701 3.94092C11.1086 3.82712 11.0428 3.71562 10.9727 3.60666C10.8866 3.47304 10.8584 3.31149 10.8942 3.15754C10.93 3.00359 11.0269 2.86984 11.1636 2.78568ZM12.3639 5.54159C12.4439 5.53872 12.5236 5.55127 12.5987 5.57853C12.6737 5.60579 12.7425 5.64721 12.8011 5.70045C12.8597 5.75368 12.9071 5.81767 12.9404 5.88877C12.9737 5.95988 12.9924 6.03669 12.9953 6.11484C13.001 6.26087 13.0015 6.40705 12.9969 6.55312C12.9919 6.71105 12.9228 6.86055 12.8049 6.96872C12.687 7.0769 12.53 7.13489 12.3684 7.12994C12.2067 7.125 12.0537 7.05751 11.943 6.94234C11.8323 6.82716 11.7729 6.67373 11.778 6.5158C11.7821 6.39674 11.7821 6.27757 11.778 6.15851C11.772 6.00082 11.8304 5.84727 11.9403 5.7316C12.0501 5.61592 12.2025 5.54758 12.3639 5.54159Z" fill="black"/>
<path d="M6.29599 2.38234C6.45763 2.38234 6.61265 2.44508 6.72695 2.55675C6.84125 2.66843 6.90546 2.81989 6.90546 2.97782V5.98383L8.59978 6.81195C8.67202 6.84651 8.73655 6.8947 8.78964 6.95374C8.84273 7.01277 8.88333 7.0815 8.90911 7.15594C8.93489 7.23039 8.94533 7.30908 8.93983 7.38749C8.93433 7.46589 8.913 7.54246 8.87708 7.61277C8.84115 7.68309 8.79133 7.74576 8.73049 7.79717C8.66966 7.84858 8.59901 7.88772 8.52262 7.91232C8.44622 7.93693 8.3656 7.94652 8.2854 7.94054C8.2052 7.93456 8.127 7.91312 8.05532 7.87747L6.02376 6.885C5.92244 6.83558 5.83722 6.75955 5.77765 6.66545C5.71808 6.57134 5.68653 6.46289 5.68652 6.35224V2.97782C5.68652 2.81989 5.75073 2.66843 5.86503 2.55675C5.97933 2.44508 6.13435 2.38234 6.29599 2.38234Z" fill="black"/>
</svg>
