<svg width="39" height="39" viewBox="0 0 39 39" fill="none" xmlns="http://www.w3.org/2000/svg">
<circle cx="19.7258" cy="19.1774" r="19.1774" fill="#2563EB"/>
<path d="M25.8661 16.8078V17.2914C25.8661 22.161 22.8422 27.7415 17.3089 27.7415C15.6754 27.7458 14.0766 27.1658 12.7097 26.0731C12.9471 26.1125 13.1866 26.1303 13.4261 26.1263C14.7801 26.1309 16.0961 25.5791 17.1625 24.5596C16.5334 24.5482 15.9233 24.2949 15.4188 23.8357C14.9143 23.3765 14.5411 22.7346 14.3523 22.0014C14.5397 22.05 14.7307 22.0743 14.9222 22.074C15.1897 22.074 15.456 22.0301 15.7138 21.9434C15.0325 21.7775 14.4195 21.3274 13.9798 20.6702C13.5401 20.013 13.301 19.1896 13.3034 18.3408V18.2924C13.7203 18.5769 14.1876 18.7329 14.665 18.747C14.0295 18.2361 13.5778 17.4481 13.402 16.5439C13.2261 15.6397 13.3395 14.6877 13.719 13.8822C14.4751 15.0184 15.4184 15.9474 16.4876 16.6089C17.5569 17.2704 18.7281 17.6496 19.9251 17.7218C19.8659 17.4473 19.8379 17.1642 19.842 16.8804C19.8197 16.1303 19.9872 15.3901 20.3216 14.7605C20.656 14.1308 21.1411 13.6425 21.7109 13.3618C22.2807 13.0811 22.9074 13.0218 23.5057 13.192C24.104 13.3621 24.6449 13.7534 25.0547 14.3126C25.7283 14.1465 26.3744 13.8441 26.9664 13.418C26.7419 14.2842 26.2643 15.0192 25.6246 15.4828C26.2221 15.3823 26.8047 15.177 27.3543 14.8735C26.956 15.621 26.4521 16.2759 25.8661 16.8078Z" fill="#F5F5F5" stroke="white" stroke-width="0.54658" stroke-linecap="round" stroke-linejoin="round"/>
</svg>
