<svg width="15" height="14" viewBox="0 0 15 14" fill="none" xmlns="http://www.w3.org/2000/svg">
<path d="M7.578 7.65876C7.5325 7.65258 7.474 7.65258 7.422 7.65876C6.278 7.6217 5.36798 6.73222 5.36798 5.63889C5.36798 4.52086 6.317 3.61285 7.5 3.61285C8.6765 3.61285 9.632 4.52086 9.632 5.63889C9.6255 6.73222 8.722 7.6217 7.578 7.65876Z" stroke="black" stroke-width="0.975" stroke-linecap="round" stroke-linejoin="round"/>
<path d="M11.881 11.7356C10.724 12.7424 9.19 13.3539 7.5 13.3539C5.81 13.3539 4.276 12.7424 3.119 11.7356C3.184 11.1549 3.574 10.5867 4.2695 10.1419C6.0505 9.01772 8.9625 9.01772 10.7305 10.1419C11.426 10.5867 11.816 11.1549 11.881 11.7356Z" stroke="black" stroke-width="0.975" stroke-linecap="round" stroke-linejoin="round"/>
<path d="M7.5 13.3539C11.0898 13.3539 14 10.5883 14 7.17694C14 3.76551 11.0898 1 7.5 1C3.91015 1 1 3.76551 1 7.17694C1 10.5883 3.91015 13.3539 7.5 13.3539Z" stroke="black" stroke-width="0.975" stroke-linecap="round" stroke-linejoin="round"/>
</svg>
